{"title":"144 2015 Movies HDRip XviD ESubs New Source with Sample ~ ☻rDX☻","uid":13084805,"size":740619562,"categoryP":"video","categoryS":"movies","magnet":"?xt=urn:btih:43b342de80856b83f8fac84f9eb109a2ec67d469&amp;dn=144+2015+Movies+HDRip+XviD+ESubs+New+Source+with+Sample+%7E+%E2%98%BBrDX%E2%98%BB&amp;tr=udp%3A%2F%2Ftracker.leechers-paradise.org%3A6969&amp;tr=udp%3A%2F%2Fzer0day.ch%3A1337&amp;tr=udp%3A%2F%2Fopen.demonii.com%3A1337&amp;tr=udp%3A%2F%2Ftracker.coppersurfer.tk%3A6969&amp;tr=udp%3A%2F%2Fexodus.desync.com%3A6969","seeders":0,"leechers":1,"uploader":"basicssom","files":2,"time":1450958509,"description":"----------------------------------------------------------------\r\n144 2015 Tamil Movies HDRip XviD ESubs AAC New Source with Sample ~ ☻rDX☻\r\n\r\nSCREEN SHOTS &amp; POSTER:\r\n  \nhttp://doctorhosts.com/2015/12/144/11.html  \nhttp://doctorhosts.com/2015/12/144/1.html  \nhttp://doctorhosts.com/2015/12/144/2.html  \nhttp://doctorhosts.com/2015/12/144/3.html  \nhttp://doctorhosts.com/2015/12/144/4.html  \nhttp://doctorhosts.com/2015/12/144/5.html  \nhttp://doctorhosts.com/2015/12/144/6.html  \nhttp://doctorhosts.com/2015/12/144/7.html  \nhttp://doctorhosts.com/2015/12/144/8.html  \nhttp://doctorhosts.com/2015/12/144/9.html  \nhttp://doctorhosts.com/2015/12/144/10.html\r\n\r\nFormat                                   : Matroska\r\nFormat version                           : Version 4 / Version 2\r\nFile size                                : 701 MiB\r\nDuration                                 : 2h 5mn\r\nOverall bit rate                         : 779 Kbps\r\nMovie name                               : 144 2015 Tamil Movies HDRip XviD ESubs AAC New Source ~ rDX ~\r\n\r\nVideo\r\nID                                       : 1\r\nFormat                                   : AVC\r\nFormat/Info                              : Advanced Video Codec\r\nFormat profile                           :   \r\nFormat settings, CABAC                   : Yes\r\nFormat settings, ReFrames                : 4 frames\r\nCodec ID                                 : V_MPEG4/ISO/AVC\r\nDuration                                 : 2h 5mn\r\nBit rate                                 : 681 Kbps\r\nWidth                                    : 640 pixels\r\nHeight                                   : 272 pixels\r\nDisplay aspect ratio                     : 2.35:1\r\nFrame rate mode                          : Constant\r\nFrame rate                               : 25.000 fps\r\nColor space                              : YUV\r\nChroma subsampling                       : 4:2:0\r\nBit depth                                : 8 bits\r\nScan type                                : Progressive\r\nBits/(Pixel*Frame)                       : 0.156\r\nStream size                              : 601 MiB (86%)\r\nTitle                                    : ~ rDX ~\r\nWriting library                          : XviD\r\nLanguage                                 : Tamil\r\nDefault                                  : Yes\r\nForced                                   : Yes\r\n\r\nAudio\r\nID                                       : 2\r\nFormat                                   : MPEG Audio\r\nFormat version                           : Version 1\r\nFormat profile                           : Layer 3\r\nMode                                     : Joint stereo\r\nMode extension                           : MS Stereo\r\nCodec ID                                 : A_MPEG/L3\r\nCodec ID/Hint                            : MP3\r\nDuration                                 : 2h 5mn\r\nBit rate mode                            : Constant\r\nBit rate                                 : 96.0 Kbps\r\nChannel(s)                               : 2 channels\r\nSampling rate                            : 44.1 KHz\r\nCompression mode                         : Lossy\r\nStream size                              : 86.4 MiB (12%)\r\nTitle                                    : ~ rDX ~\r\nWriting library                          : LAME3.98.2\r\nLanguage                                 : Tamil\r\nDefault                                  : Yes\r\nForced                                   : Yes\r\n\r\nText\r\nID                                       : 3\r\nFormat                                   : UTF-8\r\nCodec ID                                 : S_TEXT/UTF8\r\nCodec ID/Info                            : UTF-8 Plain Text\r\nTitle                                    : ~ rDX ~\r\nLanguage                                 : English\r\nDefault                                  : No\r\nForced                                   : No\r\n\r\nIMDB                                     \r\nna","torrent":{"xt":"urn:btih:43b342de80856b83f8fac84f9eb109a2ec67d469","amp;dn":"144+2015+Movies+HDRip+XviD+ESubs+New+Source+with+Sample+%7E+%E2%98%BBrDX%E2%98%BB","amp;tr":["udp%3A%2F%2Ftracker.leechers-paradise.org%3A6969","udp%3A%2F%2Fzer0day.ch%3A1337","udp%3A%2F%2Fopen.demonii.com%3A1337","udp%3A%2F%2Ftracker.coppersurfer.tk%3A6969","udp%3A%2F%2Fexodus.desync.com%3A6969"],"infoHash":"43b342de80856b83f8fac84f9eb109a2ec67d469","infoHashBuffer":{"type":"Buffer","data":[67,179,66,222,128,133,107,131,248,250,200,79,158,177,9,162,236,103,212,105]},"announce":[],"urlList":[]}}